/* XPM */
static char *_c4b360ae4014ab4b93bcd3a8219ab98[] = {
/* columns rows colors chars-per-pixel */
"32 32 2 1 ",
"  c #3D3B2A",
". c None",
/* pixels */
"..............    ..............",
"............        ............",
"...........          ...........",
"..........            ..........",
".........     ....     .........",
"........     ......     ........",
".......     ...  ...   .........",
"......     ...    ... ..........",
".....     ...      ....... .....",
"....     ...        .....   ....",
"...     ...          ...     ...",
"..     ...     ..     ...     ..",
".     ...     ....     ...     .",
".    ...     ......     ...    .",
"    ...     ...  ...     ...    ",
"    ..     ...    ...     ..    ",
"    ..     ..     ...     ..    ",
"    ...          ...     ...    ",
".    ...        ...     ...    .",
".     ...      ...     ...     .",
"..     ...    ...     ...     ..",
"...     ...  ...     ...     ...",
"....     ......     ...     ....",
".....     ....     ...     .....",
"......     ...    ...     ......",
".......     ...  ...     .......",
"........     ......     ........",
".........     ....     .........",
"..........            ..........",
"...........          ...........",
"............        ............",
"..............    .............."
};
