/* XPM */
static char *b102b5fea35541bee72e4563e85cd755[] = {
/* columns rows colors chars-per-pixel */
"128 128 2 1 ",
"  c #3D3B2A",
". c None",
/* pixels */
"...........................................................          ...........................................................",
".......................................................                  .......................................................",
".....................................................                      .....................................................",
"...................................................                          ...................................................",
"..................................................                            ..................................................",
"................................................                                ................................................",
"...............................................                                  ...............................................",
"..............................................                                    ..............................................",
".............................................                                      .............................................",
"............................................                                        ............................................",
"...........................................                                          ...........................................",
"..........................................                                            ..........................................",
".........................................                                              .........................................",
"........................................                                                ........................................",
".......................................                                                  .......................................",
"......................................                                                    ......................................",
".....................................                        ......                        .....................................",
"....................................                       ..........                       ....................................",
"...................................                      ..............                      ...................................",
"..................................                      ................                      ..................................",
".................................                      ..................                      .................................",
"................................                      ....................                      ................................",
"...............................                      ......................                    .................................",
"..............................                      ........................                  ..................................",
".............................                      ..........................                ...................................",
"............................                      ..........        ..........              ....................................",
"...........................                      ..........          ..........            .....................................",
"..........................                      ..........            ..........          ......................................",
".........................                      ..........              ..........        .......................................",
"........................                      ..........                ..........      ........................................",
".......................                      ..........                  ..........    .........................................",
"......................                      ..........                    ..........  ..........................................",
".....................                      ..........                      ............................... .....................",
"....................                      ..........                        .............................   ....................",
"...................                      ..........                          ...........................     ...................",
"..................                      ..........                            .........................       ..................",
".................                      ..........                              .......................         .................",
"................                      ..........                                .....................           ................",
"...............                      ..........                                  ...................             ...............",
"..............                      ..........                                    .................               ..............",
".............                      ..........                                      ...............                 .............",
"............                      ..........                                        .............                   ............",
"...........                      ..........                                          ...........                     ...........",
"..........                      ..........                                            ..........                      ..........",
".........                      ..........                     ....                     ..........                      .........",
"........                      ..........                     ......                     ..........                      ........",
".......                      ..........                     ........                     ..........                      .......",
"......                      ..........                     ..........                     ..........                      ......",
".....                      ..........                     ............                     ..........                      .....",
".....                     ..........                     ..............                     ..........                     .....",
"....                     ..........                     ................                     ..........                     ....",
"...                     ..........                     ..................                     ..........                     ...",
"...                    ..........                     ....................                     ..........                    ...",
"..                    ..........                     ......................                     ..........                    ..",
"..                   ..........                     ........... ............                     ..........                   ..",
".                   ..........                     ...........   ............                     ..........                   .",
".                  ..........                     ...........     ............                     ..........                  .",
".                 ..........                     ...........       ............                     ..........                 .",
".                 .........                     ...........         ............                     .........                 .",
"                 .........                     ...........           ............                     .........                 ",
"                 ........                     ...........             ............                     ........                 ",
"                .........                    ...........               ............                    .........                ",
"                .........                   ...........                 ............                   .........                ",
"                .........                   ..........                   ...........                   .........                ",
"                .........                   .........                     ..........                   .........                ",
"                .........                   ........                     ...........                   .........                ",
"                .........                    ......                     ...........                    .........                ",
"                 ........                     ....                     ...........                     ........                 ",
"                 .........                     ..                     ...........                     .........                 ",
".                 .........                                          ...........                     .........                 .",
".                 ..........                                        ...........                     ..........                 .",
".                  ..........                                      ...........                     ..........                  .",
".                   ..........                                    ...........                     ..........                   .",
"..                   ..........                                  ...........                     ..........                   ..",
"..                    ..........                                ...........                     ..........                    ..",
"...                    ..........                              ...........                     ..........                    ...",
"...                     ..........                            ...........                     ..........                     ...",
"....                     ..........                          ...........                     ..........                     ....",
".....                     ..........                        ...........                     ..........                     .....",
".....                      ..........                      ...........                     ..........                      .....",
"......                      ..........                    ...........                     ..........                      ......",
".......                      ..........                  ...........                     ..........                      .......",
"........                      ..........                ...........                     ..........                      ........",
".........                      ..........              ...........                     ..........                      .........",
"..........                      ..........            ...........                     ..........                      ..........",
"...........                      ..........          ...........                     ..........                      ...........",
"............                      ..........        ...........                     ..........                      ............",
".............                      ..........      ...........                     ..........                      .............",
"..............                      ..........    ...........                     ..........                      ..............",
"...............                      ..........  ...........                     ..........                      ...............",
"................                      .....................                     ..........                      ................",
".................                      ...................                     ..........                      .................",
"..................                      .................                     ..........                      ..................",
"...................                      ...............                     ..........                      ...................",
"....................                      .............                     ..........                      ....................",
".....................                      ...........                     ..........                      .....................",
"......................                      ..........                    ..........                      ......................",
".......................                      ..........                  ..........                      .......................",
"........................                      ..........                ..........                      ........................",
".........................                      ..........              ..........                      .........................",
"..........................                      ..........            ..........                      ..........................",
"...........................                      ..........          ..........                      ...........................",
"............................                      ..........        ..........                      ............................",
".............................                      ..........................                      .............................",
"..............................                      ........................                      ..............................",
"...............................                      ......................                      ...............................",
"................................                      ....................                      ................................",
".................................                      ..................                      .................................",
"..................................                      ................                      ..................................",
"...................................                      ..............                      ...................................",
"....................................                       ..........                       ....................................",
".....................................                        ......                        .....................................",
"......................................                                                    ......................................",
".......................................                                                  .......................................",
"........................................                                                ........................................",
".........................................                                              .........................................",
"..........................................                                            ..........................................",
"...........................................                                          ...........................................",
"............................................                                        ............................................",
".............................................                                      .............................................",
"..............................................                                    ..............................................",
"...............................................                                  ...............................................",
"................................................                                ................................................",
"..................................................                            ..................................................",
"...................................................                          ...................................................",
".....................................................                      .....................................................",
".......................................................                  .......................................................",
"...........................................................          ..........................................................."
};
