/* XPM */
static char *_78eed56a75d4c8ad196289b176f7ad3[] = {
/* columns rows colors chars-per-pixel */
"16 16 2 1 ",
"  c #3D3B2A",
". c None",
/* pixels */
"......    ......",
".....      .....",
"....   ..   ....",
"...   .  . .....",
"..   .    ... ..",
".   .      .   .",
"   .   ..   .   ",
"  .   .  .   .  ",
"  .      .   .  ",
"   .    .   .   ",
".   .  .   .   .",
"..   ..   .   ..",
"...   .  .   ...",
"....   ..   ....",
".....      .....",
"......    ......"
};
