/* XPM */
static char *_09f8b4ec1c343589805f934508e3c94[] = {
/* columns rows colors chars-per-pixel */
"48 48 2 1 ",
"  c #3D3B2A",
". c None",
/* pixels */
".....................      .....................",
"...................          ...................",
"..................            ..................",
".................              .................",
"................                ................",
"...............                  ...............",
"..............        ....        ..............",
".............        ......        .............",
"............        ........        ............",
"...........        ....  ....      .............",
"..........        ....    ....    ..............",
".........        ....      ....  ...............",
"........        ....         .......... ........",
".......        ....          ..........  .......",
"......        ....            ........    ......",
".....        ....               ....       .....",
"....        ....                ....        ....",
"...        ....        ...       ....        ...",
"..        ....        .....        ...        ..",
".        ....        ......        ....        .",
".       ....        .........       ....       .",
"       ....        ....  .....        ...       ",
"      ....        ....    ....        ....      ",
"      ...        ....      ....        ...      ",
"      ...        ...        ....       ...      ",
"      ....       ..        ....       ....      ",
"       ....               ....        ...       ",
".       ....             ....        ...       .",
".        ...            ....        ...        .",
"..        ....         ....        ...        ..",
"...        ....       ....        ...        ...",
"....        ....     ....        ...        ....",
".....        ....   ....        ...        .....",
"......        .... ....        ...        ......",
".......        .......        ...        .......",
"........        ....         ...        ........",
".........        ...        ...        .........",
"..........        ...      ...        ..........",
"...........        ....  ....        ...........",
"............        ........        ............",
".............        ......        .............",
"..............        ....        ..............",
"...............                  ...............",
"................                ................",
".................              .................",
"..................            ..................",
"...................          ...................",
".....................      ....................."
};
